<?xml version="1.0" encoding="UTF-8"?>
<!DOCTYPE svg PUBLIC "-//W3C//DTD SVG 1.1//EN" "http://www.w3.org/Graphics/SVG/1.1/DTD/svg11.dtd">
<svg xmlns="http://www.w3.org/2000/svg" version="1.1" width="80px" height="50px" style="shape-rendering:geometricPrecision; text-rendering:geometricPrecision; image-rendering:optimizeQuality; fill-rule:evenodd; clip-rule:evenodd" xmlns:xlink="http://www.w3.org/1999/xlink">
<g><path style="opacity:1" fill="#747474" d="M 73.5,5.5 C 72.8333,5.5 72.5,5.83333 72.5,6.5C 71.4265,5.74943 71.2599,4.74943 72,3.5C 72.7172,4.0442 73.2172,4.71087 73.5,5.5 Z"/></g>
<g><path style="opacity:1" fill="#272727" d="M 5.5,40.5 C 5.67158,41.4916 5.33825,42.1583 4.5,42.5C 2.22814,38.7378 0.561469,34.7378 -0.5,30.5C -0.5,26.8333 -0.5,23.1667 -0.5,19.5C 0.927565,13.743 3.42756,8.40968 7,3.5C 7.16667,4 7.33333,4.5 7.5,5C 3.28714,16.6482 2.62047,28.4816 5.5,40.5 Z"/></g>
<g><path style="opacity:1" fill="#262626" d="M 73.5,5.5 C 76.0963,9.96951 78.0963,14.6362 79.5,19.5C 79.5,23.1667 79.5,26.8333 79.5,30.5C 78.4385,34.7378 76.7719,38.7378 74.5,42.5C 73.6618,42.1583 73.3284,41.4916 73.5,40.5C 74.1245,35.338 74.7911,30.1713 75.5,25C 74.866,18.7566 73.866,12.59 72.5,6.5C 72.5,5.83333 72.8333,5.5 73.5,5.5 Z"/></g>
<g><path style="opacity:1" fill="#4c4c4c" d="M 14.5,14.5 C 14.6716,13.5084 14.3382,12.8417 13.5,12.5C 13.6854,10.8042 14.5187,9.47088 16,8.5C 16.1206,10.6843 15.6206,12.6843 14.5,14.5 Z"/></g>
<g><path style="opacity:1" fill="#252525" d="M 13.5,12.5 C 14.3382,12.8417 14.6716,13.5084 14.5,14.5C 13.1667,21.5 13.1667,28.5 14.5,35.5C 14.6716,36.4916 14.3382,37.1583 13.5,37.5C 11.0668,33.8076 10.0668,29.6409 10.5,25C 10.0668,20.3591 11.0668,16.1924 13.5,12.5 Z"/></g>
<g><path style="opacity:1" fill="#2b2b2b" d="M 62.5,8.5 C 67.1421,12.9169 69.1421,18.4169 68.5,25C 69.0556,31.3331 67.2223,36.8331 63,41.5C 63.9143,36.1056 64.7476,30.6056 65.5,25C 64.9155,19.4024 63.9155,13.9024 62.5,8.5 Z"/></g>
<g><path style="opacity:1" fill="#353535" d="M 23.5,13.5 C 23.3566,21.0036 23.5232,28.6702 24,36.5C 18.1861,28.9639 18.0194,21.2972 23.5,13.5 Z"/></g>
<g><path style="opacity:1" fill="#222222" d="M 57.5,17.5 C 60.1667,22.5 60.1667,27.5 57.5,32.5C 56.596,31.791 56.2627,30.791 56.5,29.5C 56.1832,25.2984 56.5166,21.2984 57.5,17.5 Z"/></g>
<g><path style="opacity:1" fill="#5c5c5c" d="M 57.5,17.5 C 56.5166,21.2984 56.1832,25.2984 56.5,29.5C 56.1667,29.5 55.8333,29.5 55.5,29.5C 55.5057,24.1066 55.339,18.7732 55,13.5C 56.4813,14.4709 57.3146,15.8042 57.5,17.5 Z"/></g>
<g><path style="opacity:1" fill="#1c1c1c" d="M 49.5,20.5 C 50.8333,23.5 50.8333,26.5 49.5,29.5C 48.1667,26.5 48.1667,23.5 49.5,20.5 Z"/></g>
<g><path style="opacity:1" fill="#2f2f2f" d="M 30.5,17.5 C 31.2389,17.369 31.9056,17.5357 32.5,18C 31.5723,23.0191 31.239,27.8524 31.5,32.5C 27.8708,27.7492 27.5374,22.7492 30.5,17.5 Z"/></g>
<g><path style="opacity:1" fill="#323232" d="M 38.5,19.5 C 40.8837,20.4251 41.8837,22.2585 41.5,25C 40.1667,32.3333 38.8333,32.3333 37.5,25C 37.6962,23.1216 38.0295,21.2883 38.5,19.5 Z"/></g>
<g><path style="opacity:1" fill="#414141" d="M 49.5,20.5 C 48.1667,23.5 48.1667,26.5 49.5,29.5C 49.1541,31.3628 48.1541,32.1961 46.5,32C 47.8333,27.3333 47.8333,22.6667 46.5,18C 48.4894,17.4808 49.4894,18.3141 49.5,20.5 Z"/></g>
<g><path style="opacity:1" fill="#404040" d="M 55.5,29.5 C 55.8333,29.5 56.1667,29.5 56.5,29.5C 56.2627,30.791 56.596,31.791 57.5,32.5C 57.3146,34.1958 56.4813,35.5291 55,36.5C 54.9822,34.2028 55.1489,31.8695 55.5,29.5 Z"/></g>
<g><path style="opacity:1" fill="#4e4e4e" d="M 14.5,35.5 C 15.6206,37.3157 16.1206,39.3157 16,41.5C 14.5187,40.5291 13.6854,39.1958 13.5,37.5C 14.3382,37.1583 14.6716,36.4916 14.5,35.5 Z"/></g>
<g><path style="opacity:1" fill="#4e4e4e" d="M 5.5,40.5 C 6.62061,42.3157 7.12061,44.3157 7,46.5C 5.51869,45.5291 4.68535,44.1958 4.5,42.5C 5.33825,42.1583 5.67158,41.4916 5.5,40.5 Z"/></g>
<g><path style="opacity:1" fill="#505050" d="M 73.5,40.5 C 73.3284,41.4916 73.6618,42.1583 74.5,42.5C 74.3146,44.1958 73.4813,45.5291 72,46.5C 71.8794,44.3157 72.3794,42.3157 73.5,40.5 Z"/></g>
</svg>
